<svg xmlns="http://www.w3.org/2000/svg" width="242" height="164.2" viewBox="0 0 242 164.2">
  <g id="Group_14716" data-name="Group 14716" transform="translate(12143 10691.2)">
    <text id="Adobe_after_effects" data-name="Adobe after effects" transform="translate(-12022 -10533)" fill="#fff" font-size="24" font-family="Montserrat-SemiBold, Montserrat" font-weight="600"><tspan x="-120.612" y="0">Adobe After Effects</tspan></text>
    <g id="Group_14716-2" data-name="Group 14716" transform="translate(376.999 57.93)">
      <path id="Path_487" data-name="Path 487" d="M122.059,19.5V99.6a3.8,3.8,0,0,0-.2.67,21.7,21.7,0,0,1-22.09,18.821c-25.818-.075-51.637-.019-77.455-.033a23.8,23.8,0,0,1-3.918-.258A21.544,21.544,0,0,1,.007,97.077q-.013-37.536,0-75.072C.013,9.655,9.376.087,21.723.052q39.323-.111,78.647,0a21.459,21.459,0,0,1,21.083,16.557c.235.955.406,1.926.607,2.89M65.249,83.826a11,11,0,0,0-.277-1.228q-9.1-25.539-18.2-51.078c-.216-.607-.491-.911-1.172-.907q-6.135.032-12.27,0c-.707,0-.92.258-1.019.956a27.187,27.187,0,0,1-.945,4.88c-2.412,7.134-4.937,14.23-7.418,21.34q-4.29,12.294-8.572,24.591c-.5,1.437-.411,1.556,1.121,1.56,2.7.006,5.4-.044,8.1.023a1.679,1.679,0,0,0,1.925-1.451c.64-2.248,1.4-4.46,2.125-6.685.495-1.531,1-3.058,1.491-4.556H49.009c.14.379.283.742.41,1.111,1.2,3.485,2.423,6.963,3.587,10.461a1.384,1.384,0,0,0,1.541,1.114c3.176-.039,6.354-.012,9.53-.02.343,0,.686-.063,1.173-.11m35.9-10.1c-1.873.426-3.628.891-5.41,1.217-3.838.7-7.65.845-11.333-.806C81.2,72.7,79.72,70.09,79.217,66.679c.331-.035.561-.081.792-.081,5.241,0,10.483.018,15.724,0,2.5-.007,4.995-.088,7.492-.113.774-.008,1.18-.312,1.2-1.121a63,63,0,0,0,.187-6.417c-.369-5-2.05-9.495-6.141-12.68-8.664-6.745-22.53-3.645-27.867,6.2a24.575,24.575,0,0,0-2.52,16.156,19.515,19.515,0,0,0,4.925,10.511,18.224,18.224,0,0,0,11.2,5.5,32.3,32.3,0,0,0,15.711-1.515c.478-.176,1.156-.712,1.17-1.1.1-2.768.054-5.541.054-8.3" transform="translate(-12460 -10747.93)" fill="none" stroke="#fff" stroke-width="2.5"/>
      <path id="Path_488" data-name="Path 488" d="M110.255,125.412l6.54,21.172h-12.91l6.37-21.172" transform="translate(-12530.8 -10833.401)" fill="#fff"/>
      <path id="Path_489" data-name="Path 489" d="M248.839,169.576c.629-5.7,4.886-8.437,9.906-7.168a6.573,6.573,0,0,1,4.764,5.531c.157,1.312-.066,1.589-1.472,1.608-2.46.032-4.919.024-7.379.028-1.936,0-3.872,0-5.82,0" transform="translate(-12629.59 -10858.407)" fill="#fff"/>
    </g>
  </g>
</svg>
