<svg xmlns="http://www.w3.org/2000/svg" width="80.51" height="164.241" viewBox="0 0 80.51 164.241">
  <g id="Group_14715" data-name="Group 14715" transform="translate(12173 10538.241)">
    <text id="Figma" transform="translate(-12133 -10380)" fill="#fff" font-size="24" font-family="Montserrat-SemiBold, Montserrat" font-weight="600"><tspan x="-39.24" y="0">Figma</tspan></text>
    <g id="Group_14715-2" data-name="Group 14715" transform="translate(-12202 -10512)">
      <g id="Group_14711" data-name="Group 14711" transform="translate(31 -25)">
        <path id="Path_482" data-name="Path 482" d="M35.45.118v35.4H34.063c-5.377,0-10.753.015-16.13,0C8.381,35.485,1.025,28.674.076,19-.766,10.429,5.524,2.214,14.362.388A15.668,15.668,0,0,1,17.417.049C23.184.015,28.952.03,34.719.031a7.289,7.289,0,0,1,.731.087" transform="translate(0 -0.016)" fill="none" stroke="#fff" stroke-width="2.5"/>
        <path id="Path_483" data-name="Path 483" d="M106.81,35.433V.2a1.807,1.807,0,0,1,.479-.165c6.455.047,12.931-.218,19.358.233,8.538.6,15.2,8.16,15.522,16.92A17.7,17.7,0,0,1,127.96,35.161a21.028,21.028,0,0,1-3.642.327c-5.333.035-10.665.016-16,.012-.478,0-.956-.041-1.511-.067" transform="translate(-64.923 0)" fill="none" stroke="#fff" stroke-width="2.5"/>
        <path id="Path_484" data-name="Path 484" d="M35.467,106.642v35.3c-.468.041-.887.11-1.307.11-5.333.007-10.666.058-16-.009-8.96-.113-15.9-5.694-17.735-14.172C-1.806,117.579,5.9,107.189,16.416,106.7c6.289-.295,12.6-.054,19.052-.054" transform="translate(-0.024 -64.765)" fill="none" stroke="#fff" stroke-width="2.5"/>
        <path id="Path_485" data-name="Path 485" d="M35.764,213.146c-.156,7.159.2,14.152-.589,21.013-.977,8.48-9.188,14.763-17.679,14.473a17.744,17.744,0,0,1,.483-35.483c5.333-.015,10.666,0,16,0Z" transform="translate(-0.109 -129.556)" fill="none" stroke="#fff" stroke-width="2.5"/>
        <path id="Path_486" data-name="Path 486" d="M142.066,124.314a17.725,17.725,0,1,1-17.77-17.679,17.688,17.688,0,0,1,17.77,17.679" transform="translate(-64.806 -64.817)" fill="none" stroke="#fff" stroke-width="2.5"/>
      </g>
    </g>
  </g>
</svg>
