<svg xmlns="http://www.w3.org/2000/svg" width="210" height="164.233" viewBox="0 0 210 164.233">
  <g id="Group_14722" data-name="Group 14722" transform="translate(11405 10040.233)">
    <g id="Group_14719" data-name="Group 14719" transform="translate(929 -63.866)">
      <path id="Path_492" data-name="Path 492" d="M122.052,722.364v80.094a3.746,3.746,0,0,0-.2.667c-1.04,9.442-9.366,18.877-22.2,18.829-25.739-.1-51.478-.025-77.217-.04a24.531,24.531,0,0,1-4.037-.259A21.518,21.518,0,0,1,.007,799.943q-.013-37.537,0-75.073c.005-12.357,9.358-21.915,21.713-21.95q39.324-.111,78.647,0a21.438,21.438,0,0,1,21.08,16.555c.235.955.4,1.926.6,2.89M69.41,786.972c1.588,0,3.177.009,4.765,0,1.216-.009,1.314-.152.9-1.334-.545-1.573-1.109-3.14-1.665-4.709q-8.222-23.2-16.429-46.41a1.45,1.45,0,0,0-1.6-1.177c-3.891.048-7.783.04-11.675.006-.891-.008-1.207.236-1.3,1.19a22.356,22.356,0,0,1-.919,4.756c-1.794,5.418-3.706,10.8-5.58,16.189q-5.152,14.828-10.31,29.653c-.612,1.759-.552,1.839,1.351,1.84,2.542,0,5.086-.068,7.623.03a1.812,1.812,0,0,0,2.088-1.558c1.023-3.376,2.158-6.717,3.208-10.085.231-.74.524-1.07,1.387-1.062q8.458.072,16.917.005a1.181,1.181,0,0,1,1.33.98c1.168,3.5,2.419,6.965,3.575,10.465a1.482,1.482,0,0,0,1.689,1.244c1.545-.072,3.1-.019,4.646-.019M92.035,766.78c0-6.392-.014-12.783.016-19.175,0-.919-.274-1.272-1.22-1.259q-4.465.063-8.932,0c-.906-.012-1.273.273-1.271,1.219q.03,19.056,0,38.111c0,1.055.429,1.364,1.434,1.347,2.818-.048,5.639-.073,8.455.01,1.218.036,1.554-.358,1.544-1.555-.054-6.232-.025-12.465-.025-18.7m.711-31.12c.007-3.793-2.457-6.332-6.175-6.362a6.215,6.215,0,0,0-6.471,6.29,6.325,6.325,0,1,0,12.646.072" transform="translate(-12290 -10678.002)" fill="none" stroke="#fff" stroke-width="2.5"/>
      <path id="Path_493" data-name="Path 493" d="M148.533,849.82H135.644l6.216-20.937.234-.025,6.44,20.962" transform="translate(-12382.447 -10763.87)" fill="#fff"/>
    </g>
    <text id="adobe_illustrator" data-name="adobe illustrator" transform="translate(-11300 -9882)" fill="#fff" font-size="24" font-family="Montserrat-SemiBold, Montserrat" font-weight="600"><tspan x="-104.004" y="0">Adobe Illustrator</tspan></text>
  </g>
</svg>
