<svg xmlns="http://www.w3.org/2000/svg" width="114" height="14" viewBox="0 0 14 14">
  <path id="Icon_awesome-instagram" data-name="Icon awesome-instagram" d="M6.544,5.428A3.358,3.358,0,1,0,9.9,8.786,3.352,3.352,0,0,0,6.544,5.428Zm0,5.541A2.183,2.183,0,1,1,8.727,8.786a2.187,2.187,0,0,1-2.182,2.183Zm4.277-5.678a.783.783,0,1,1-.783-.783A.781.781,0,0,1,10.821,5.291Zm2.223.795a3.876,3.876,0,0,0-1.058-2.744A3.9,3.9,0,0,0,9.244,2.284c-1.081-.061-4.321-.061-5.4,0A3.894,3.894,0,0,0,1.1,3.339,3.889,3.889,0,0,0,.041,6.083c-.061,1.081-.061,4.322,0,5.4A3.876,3.876,0,0,0,1.1,14.23a3.9,3.9,0,0,0,2.743,1.058c1.081.061,4.321.061,5.4,0a3.874,3.874,0,0,0,2.743-1.058,3.9,3.9,0,0,0,1.058-2.744c.061-1.081.061-4.319,0-5.4Zm-1.4,6.56A2.21,2.21,0,0,1,10.4,13.891a14.426,14.426,0,0,1-3.859.263,14.539,14.539,0,0,1-3.859-.263A2.21,2.21,0,0,1,1.44,12.646a14.436,14.436,0,0,1-.263-3.86,14.548,14.548,0,0,1,.263-3.86A2.21,2.21,0,0,1,2.685,3.681a14.426,14.426,0,0,1,3.859-.263,14.539,14.539,0,0,1,3.859.263,2.21,2.21,0,0,1,1.245,1.245,14.436,14.436,0,0,1,.263,3.86A14.427,14.427,0,0,1,11.648,12.646Z" transform="translate(0.005 -2.238)" fill=""/>
</svg>
