<svg xmlns="http://www.w3.org/2000/svg" width="224" height="164.426" viewBox="0 0 224 164.426">
  <g id="Group_14723" data-name="Group 14723" transform="translate(11784 10265.426)">
    <g id="Group_14717" data-name="Group 14717" transform="translate(-354.512 413.818)">
      <path id="Path_490" data-name="Path 490" d="M911.512,99.8V19.233a1.67,1.67,0,0,0,.194-.414C913.562,7.414,922.228.011,933.779.007q38.731-.013,77.462.008a24.092,24.092,0,0,1,3.919.254,21.509,21.509,0,0,1,18.4,21.707q.017,37.539,0,75.079c-.006,12.367-9.333,21.911-21.716,21.952q-39.326.128-78.654,0a21.457,21.457,0,0,1-21.08-16.565c-.214-.875-.4-1.758-.594-2.637M950,67.138c.716,0,1.3.023,1.889,0,3.207-.147,6.447-.064,9.614-.506,8.96-1.251,15.857-7.332,15.915-17.941.039-7.213-3.621-13.281-10.077-16.187a20.951,20.951,0,0,0-8.393-2.03c-6.35-.058-12.7.081-19.053.119-.739,0-.961.328-.952,1.017.025,1.827.008,3.654.008,5.481q0,22.7,0,45.4c0,1.627,0,1.629,1.653,1.63,2.661,0,5.324-.049,7.983.024,1.118.031,1.441-.361,1.431-1.436-.042-4.686-.017-9.373-.017-14.06v-1.5m33,5.318c-.069.621-.154,1.036-.156,1.452-.013,2.462.037,4.925-.026,7.385a1.808,1.808,0,0,0,1.338,1.95,29.911,29.911,0,0,0,10.12,1.929,22.96,22.96,0,0,0,10.931-1.828,11.586,11.586,0,0,0,7.138-9.927,10.62,10.62,0,0,0-5.91-11.025c-2.082-1.135-4.289-2.038-6.429-3.069-1.781-.858-3.586-1.677-5.3-2.655a2.151,2.151,0,0,1-1.106-2.438,2.347,2.347,0,0,1,2.056-1.889,16.86,16.86,0,0,1,3.062-.332,24.041,24.041,0,0,1,10.146,2.222c1.059.519,1.445.236,1.453-.972.015-2.422-.018-4.845.014-7.266.012-.932-.322-1.559-1.26-1.712-2.964-.481-5.919-1.124-8.9-1.342a18.976,18.976,0,0,0-10.623,1.988,11.613,11.613,0,0,0-6.526,9.722,10.68,10.68,0,0,0,5.576,10.671c2.92,1.72,6.13,2.943,9.189,4.434a12.172,12.172,0,0,1,2.728,1.649c1.5,1.311,1.075,3.218-.787,3.955a6.24,6.24,0,0,1-1.492.385,23.906,23.906,0,0,1-13.717-2.523c-.449-.219-.892-.45-1.512-.764" transform="translate(-12290 -10678.002)" fill="none" stroke="#fff" stroke-width="2.5"/>
      <path id="Path_491" data-name="Path 491" d="M1032.787,126.586c3.463-.069,6.834-.437,10.143.494,3.7,1.041,5.92,3.71,6.053,7.208.165,4.342-1.478,6.969-5.356,8.438-3.508,1.329-7.148,1.121-10.84.95Z" transform="translate(-12372.655 -10764.187)" fill="#fff"/>
    </g>
    <text id="adobe_photoshop" data-name="adobe photoshop" transform="translate(-11672 -10107)" fill="#fff" font-size="24" font-family="Montserrat-SemiBold, Montserrat" font-weight="600"><tspan x="-111.696" y="0">Adobe Photoshop</tspan></text>
  </g>
</svg>
