<svg xmlns="http://www.w3.org/2000/svg" width="103.483" height="161.212" viewBox="0 0 103.483 161.212">
  <g id="Group_14704" data-name="Group 14704" transform="translate(12188 10481.212)">
    <g id="_30" data-name="30" transform="translate(-12188.969 -10481.737)">
      <path id="Path_476" data-name="Path 476" d="M67.272,14.26s-1.246.379-3.293,1.041a28.741,28.741,0,0,0-1.6-4.166C60.063,6.4,56.592,3.846,52.5,3.846a3.146,3.146,0,0,0-.89.095A.92.92,0,0,0,51.43,3.7a.918.918,0,0,1-.178-.237A8.208,8.208,0,0,0,44.4.532c-5.34.189-10.68,4.26-14.952,11.551a46.72,46.72,0,0,0-5.963,16.569c-6.141,1.988-10.413,3.408-10.5,3.5-3.115,1.041-3.2,1.136-3.56,4.261-.267,2.367-8.455,69.02-8.455,69.02l67.282,12.4V14.165a4.179,4.179,0,0,0-.739.066A1.588,1.588,0,0,1,67.272,14.26ZM51.7,19.373c-1.866.6-3.83,1.243-5.827,1.9h0c-1.813.6-3.654,1.2-5.475,1.79a29.949,29.949,0,0,1,5.7-11.835A14.415,14.415,0,0,1,49.917,8.2C51.43,11.609,51.786,16.248,51.7,19.373ZM47.6,5.265a5.829,5.829,0,0,0-3.2-.852C36.212,4.6,29,18.331,27.045,27.42c2.937-.947,6.141-1.988,9.345-3.03,1.068-5.775,3.649-11.835,7.031-15.717A17.092,17.092,0,0,1,47.6,5.265ZM34.076,56.486c.14,2.391,2.568,4.045,5.51,6.05,4.513,3.076,10.238,6.977,10.777,15.631.623,11.267-5.607,18.935-14.6,19.5a21.179,21.179,0,0,1-16.82-6.059L21.26,81.2s5.963,4.828,10.769,4.45a4.484,4.484,0,0,0,4.183-4.829c-.2-3.49-2.669-5.357-5.453-7.457-3.56-2.687-7.626-5.755-8.075-13.088-.712-10.983,6.052-22.06,21-23.1,5.785-.379,8.722,1.136,8.722,1.136L49.028,51.942a17.622,17.622,0,0,0-8.366-1.515C34.076,50.9,33.987,55.35,34.076,56.486ZM53.655,7.917a31.9,31.9,0,0,1,1.6,10.32q2.937-.994,5.34-1.7C59.707,13.6,57.749,8.769,53.655,7.917Z" transform="translate(0 0)" fill="#16171a" fill-rule="evenodd"/>
      <path id="Path_477" data-name="Path 477" d="M55.336,111.75l33.73-7.239s-14.5-84.74-14.609-85.3a1.2,1.2,0,0,0-1.182-.928c-.537,0-9.99-.186-9.99-.186s-5.8-4.826-7.949-6.683Z" transform="translate(15.387 5.873)" fill="#16171a"/>
    </g>
    <text id="Shopify" transform="translate(-12136 -10326)" fill="#0b0b0b" font-size="24" font-family="Montserrat-SemiBold, Montserrat" font-weight="600"><tspan x="-46.752" y="0">Shopify</tspan></text>
  </g>
</svg>
