<svg xmlns="http://www.w3.org/2000/svg" width="14.896" height="12.013" viewBox="0 0 14.896 12.013">
  <path id="Icon_awesome-twitter" data-name="Icon awesome-twitter" d="M13.365,6.375c.009.131.009.263.009.394a8.594,8.594,0,0,1-8.686,8.625A8.672,8.672,0,0,1,0,14.033a6.36,6.36,0,0,0,.737.038,6.142,6.142,0,0,0,3.79-1.3,3.056,3.056,0,0,1-2.854-2.1,3.877,3.877,0,0,0,.577.047,3.25,3.25,0,0,0,.8-.1A3.037,3.037,0,0,1,.6,7.642V7.6a3.091,3.091,0,0,0,1.38.385A3.024,3.024,0,0,1,.624,5.464a2.992,2.992,0,0,1,.416-1.53A8.7,8.7,0,0,0,7.334,7.107a3.4,3.4,0,0,1-.076-.694,3.06,3.06,0,0,1,5.283-2.074,6.037,6.037,0,0,0,1.938-.732,3.027,3.027,0,0,1-1.342,1.671A6.154,6.154,0,0,0,14.9,4.807a6.537,6.537,0,0,1-1.531,1.567Z" transform="translate(0 -3.381)" fill=""/>
</svg>
