<svg xmlns="http://www.w3.org/2000/svg" width="22.224" height="17.923" viewBox="0 0 22.224 17.923">
  <path id="Icon_awesome-twitter" data-name="Icon awesome-twitter" d="M19.94,7.847c.014.2.014.392.014.588A12.822,12.822,0,0,1,6.995,21.3,12.938,12.938,0,0,1,0,19.273a9.489,9.489,0,0,0,1.1.056A9.163,9.163,0,0,0,6.755,17.4,4.559,4.559,0,0,1,2.5,14.261a5.784,5.784,0,0,0,.86.07,4.85,4.85,0,0,0,1.2-.154A4.531,4.531,0,0,1,.9,9.738V9.682a4.612,4.612,0,0,0,2.059.574A4.511,4.511,0,0,1,.931,6.489a4.465,4.465,0,0,1,.62-2.282A12.978,12.978,0,0,0,10.943,8.94,5.071,5.071,0,0,1,10.83,7.9a4.566,4.566,0,0,1,7.883-3.095A9.007,9.007,0,0,0,21.6,3.717a4.516,4.516,0,0,1-2,2.492,9.182,9.182,0,0,0,2.623-.7A9.754,9.754,0,0,1,19.94,7.847Z" transform="translate(0 -3.381)" fill="#f5eeee"/>
</svg>
