<svg xmlns="http://www.w3.org/2000/svg" width="134" height="162.986" viewBox="0 0 134 162.986">
  <g id="Group_14703" data-name="Group 14703" transform="translate(-101 -6843.014)">
    <path id="_1" data-name="1" d="M59.608,0C27.162,0,.859,26.658.859,59.543s26.3,59.543,58.749,59.543,58.749-26.658,58.749-59.543S92.055,0,59.608,0Zm0,3.573A54.245,54.245,0,0,1,81.1,7.97a55,55,0,0,1,9.379,5.16A56.365,56.365,0,0,1,98.658,99.12a55.813,55.813,0,0,1-8.175,6.837,54.989,54.989,0,0,1-9.379,5.16,54.736,54.736,0,0,1-42.989,0,54.989,54.989,0,0,1-9.379-5.16,56.365,56.365,0,0,1-8.175-85.991,55.835,55.835,0,0,1,8.175-6.837,55,55,0,0,1,9.379-5.16A54.244,54.244,0,0,1,59.608,3.573ZM88.623,43.355a26.38,26.38,0,0,1,4.036,13.684c0,4.246-1.316,9.268-3.56,16.356l-5.051,16.22L66.356,36.277c2.947-.157,5.6-.471,5.6-.471a2.051,2.051,0,0,0-.312-4.089s-7.93.631-13.05.631c-4.81,0-12.894-.631-12.894-.631-2.64-.157-2.95,3.931-.31,4.089,0,0,2.5.315,5.135.471l7.627,21.181L47.44,90.024,29.613,36.277c2.95-.157,5.6-.471,5.6-.471a2.051,2.051,0,0,0-.313-4.089s-7.929.631-13.049.631c-.918,0-2-.023-3.151-.06a48.538,48.538,0,0,1,73.966-9.336l-.207-.016h0c-.141-.012-.281-.024-.427-.024-4.809,0-8.221,4.246-8.221,8.806,0,3.769,1.977,7,4.23,10.689Q88.331,42.875,88.623,43.355Zm13.947-7.617a38.6,38.6,0,0,1,.329,5.1,47.384,47.384,0,0,1-3.724,17.772L84.223,102.428A50.042,50.042,0,0,0,102.57,35.737Zm-42.1,28.144L45.778,107.14a48.359,48.359,0,0,0,30.09-.791,4.559,4.559,0,0,1-.351-.684Zm-49.818-4.34A49.682,49.682,0,0,0,38.244,104.2L14.89,39.348A50,50,0,0,0,10.651,59.541Z" transform="translate(108.141 6843.014)" fill="#16171a" fill-rule="evenodd"/>
    <text id="Wordpress" transform="translate(168 7000)" fill="#0b0b0b" font-size="24" font-family="Montserrat-SemiBold, Montserrat" font-weight="600"><tspan x="-66.948" y="0">Wordpress</tspan></text>
  </g>
</svg>
