<svg xmlns="http://www.w3.org/2000/svg" width="124.578" height="164.161" viewBox="0 0 124.578 164.161">
  <g id="Group_14724" data-name="Group 14724" transform="translate(11553.25 10113.161)">
    <g id="Group_14718" data-name="Group 14718" transform="translate(316.918 -250.396)">
      <path id="Path_494" data-name="Path 494" d="M421.082,916.306V835.719a1.659,1.659,0,0,0,.194-.414c1.858-11.4,10.541-18.812,22.081-18.816q38.737-.012,77.473.008a24.028,24.028,0,0,1,3.919.254,21.533,21.533,0,0,1,18.4,21.715q.017,37.545,0,75.09c-.007,12.359-9.355,21.92-21.722,21.958q-39.333.121-78.665,0a21.481,21.481,0,0,1-21.085-16.571c-.214-.875-.4-1.758-.6-2.637m92.691-57.017c-2.107,0-4.09-.129-6.052.021-12.36.948-20.706,10.258-20.324,22.6.3,9.791,5.533,16.527,14.862,18.745,7.647,1.818,15.064.48,22.27-2.31a1.734,1.734,0,0,0,.762-1.36c-.01-2.262-.23-4.524-.233-6.785q-.036-23.126.013-46.251c0-1.117-.321-1.421-1.4-1.4-2.9.066-5.8.058-8.7,0-.957-.018-1.219.307-1.211,1.233.038,4.688.017,9.377.017,14.066,0,.426,0,.852,0,1.437m-74.647-12.113c.315.566.534.977.771,1.378q7.116,12.043,14.253,24.074a1.846,1.846,0,0,1,.012,2.228q-7.394,12.016-14.695,24.09a14.947,14.947,0,0,0-.672,1.465c3.909,0,7.558-.023,11.206.016a1.917,1.917,0,0,0,1.966-1.158c3.105-5.9,6.264-11.766,9.407-17.643.194-.362.4-.717.667-1.185.224.36.379.581.507.818,3.133,5.837,6.3,11.656,9.364,17.53a2.563,2.563,0,0,0,2.687,1.6c3.255-.083,6.514-.027,9.771-.027h2.215c-.333-.668-.523-1.129-.779-1.55q-7.528-12.352-15.089-24.685a1.914,1.914,0,0,1-.026-2.334q7.182-11.727,14.264-23.514a.752.752,0,1,0-.74-1.3c-3.217-.019-6.436-.047-9.652.026a2,2,0,0,0-1.479.817c-3.225,6.013-6.379,12.064-9.55,18.1-.178.339-.361.674-.6,1.121-.663-1.293-1.241-2.465-1.857-3.616-2.77-5.175-5.559-10.34-8.315-15.522a1.729,1.729,0,0,0-1.752-.947c-3.535.013-7.071,0-10.606.013a9.364,9.364,0,0,0-1.277.2" transform="translate(-12290 -10678.002)" fill="none" stroke="#fff" stroke-width="2.5"/>
      <path id="Path_495" data-name="Path 495" d="M680.429,980.462v1.255c0,6.63-.024,13.26.025,19.89.007,1.027-.305,1.465-1.31,1.458a44.372,44.372,0,0,1-4.622-.024,8.981,8.981,0,0,1-8.244-6.977c-1.368-4.962-.711-10.227,3.383-13.346a12.816,12.816,0,0,1,10.768-2.256" transform="translate(-12456.655 -10789.532)" fill="#fff"/>
    </g>
    <text id="Adobe_XD" data-name="Adobe XD" transform="translate(-11491 -9955)" fill="#fff" font-size="24" font-family="Montserrat-SemiBold, Montserrat" font-weight="600"><tspan x="-61.872" y="0">Adobe XD</tspan></text>
  </g>
</svg>
