<svg id="Component_11_1" data-name="Component 11 – 1" xmlns="http://www.w3.org/2000/svg" xmlns:xlink="http://www.w3.org/1999/xlink" width="294.05" height="75.919" viewBox="0 0 294.05 75.919">
  <defs>
    <linearGradient id="linear-gradient" x1="-64.351" y1="-48.312" x2="544.065" y2="409.63" gradientUnits="objectBoundingBox">
      <stop offset="0" stop-color="#fff"/>
      <stop offset="0.234" stop-color="#f4f5f7"/>
      <stop offset="1"/>
    </linearGradient>
    <linearGradient id="linear-gradient-2" x1="-53.897" y1="-41.334" x2="449.633" y2="345.896" xlink:href="#linear-gradient"/>
    <linearGradient id="linear-gradient-3" x1="-0.415" y1="0.451" x2="1.544" y2="0.556" xlink:href="#linear-gradient"/>
    <linearGradient id="linear-gradient-4" x1="-0.591" y1="0.452" x2="1.685" y2="0.552" gradientUnits="objectBoundingBox">
      <stop offset="0"/>
      <stop offset="0.766" stop-color="#f4f5f7"/>
      <stop offset="1" stop-color="#fff"/>
    </linearGradient>
    <linearGradient id="linear-gradient-5" x1="-0.544" y1="0.444" x2="1.415" y2="0.549" xlink:href="#linear-gradient-4"/>
    <linearGradient id="linear-gradient-6" x1="-0.685" y1="0.448" x2="1.591" y2="0.548" xlink:href="#linear-gradient"/>
    <radialGradient id="radial-gradient" cx="0.5" cy="0.5" r="0.892" gradientTransform="translate(1.937 0.4) scale(0.441 0.903)" gradientUnits="objectBoundingBox">
      <stop offset="0" stop-color="#1f225b"/>
      <stop offset="0.766" stop-color="#66c9d7"/>
    </radialGradient>
    <radialGradient id="radial-gradient-2" cx="0.5" cy="0.5" r="0.821" gradientTransform="translate(1.845 0) scale(0.477 1)" gradientUnits="objectBoundingBox">
      <stop offset="0.234" stop-color="#66c9d7"/>
      <stop offset="1" stop-color="#1f225b"/>
    </radialGradient>
    <radialGradient id="radial-gradient-3" cx="1.522" cy="-0.579" r="3.549" gradientTransform="translate(1.547 -0.037) scale(0.82 1.018)" xlink:href="#radial-gradient"/>
    <radialGradient id="radial-gradient-4" cx="4.935" cy="-0.632" r="4.016" gradientTransform="translate(-17.916 -0.039) scale(1.817 1.018)" xlink:href="#radial-gradient"/>
    <radialGradient id="radial-gradient-5" cx="5.346" cy="-2.204" r="15.915" gradientTransform="translate(10.496 -0.159) scale(0.634 1.018)" xlink:href="#radial-gradient"/>
    <radialGradient id="radial-gradient-6" cx="1.149" cy="-0.456" r="3.279" gradientTransform="translate(-15.384 -0.035) scale(1.931 1.018)" xlink:href="#radial-gradient"/>
    <radialGradient id="radial-gradient-7" cx="3.511" cy="-13.375" r="34.259" gradientTransform="translate(22.351 -0.221) scale(0.402 1.018)" xlink:href="#radial-gradient"/>
    <radialGradient id="radial-gradient-8" cx="0.511" cy="-0.723" r="2.016" gradientTransform="translate(1.295 0) scale(0.794 1)" xlink:href="#radial-gradient"/>
    <radialGradient id="radial-gradient-9" cx="2.322" cy="-0.79" r="2.203" gradientTransform="translate(-15.225 0) scale(1.881 1)" xlink:href="#radial-gradient"/>
    <radialGradient id="radial-gradient-10" cx="1.797" cy="-2.847" r="8.992" gradientTransform="translate(8.279 0) scale(0.626 1)" xlink:href="#radial-gradient"/>
    <radialGradient id="radial-gradient-11" cx="-1.077" cy="-0.589" r="1.859" gradientTransform="translate(-10.488 0) scale(1.898 1)" xlink:href="#radial-gradient"/>
    <radialGradient id="radial-gradient-12" cx="-1.353" cy="-14.763" r="19.4" gradientTransform="translate(15.971 0) scale(0.398 1)" xlink:href="#radial-gradient"/>
  </defs>
  <g id="Group_20" data-name="Group 20" transform="translate(-24.66 -191.821)">
    <g id="Group_12" data-name="Group 12" transform="translate(127.681 209.196)">
      <g id="Group_9" data-name="Group 9" transform="translate(0 0)">
        <path id="Path_44" data-name="Path 44" d="M209.374,219.222a2.729,2.729,0,0,0-3.8,0,2.551,2.551,0,0,0-.777,1.885v7.068h-.042a13.791,13.791,0,0,0-10.155-2.784,13.837,13.837,0,0,0-5.1,1.693,13.265,13.265,0,0,0-4.072,3.534,14.044,14.044,0,0,0-2.055,3.813,14.353,14.353,0,0,0-.815,4.24,13.7,13.7,0,0,0,1.523,6.664,13.7,13.7,0,0,0,11.222,7.433,13.87,13.87,0,0,0,6.951-1.286,14.172,14.172,0,0,0,2.941-1.905,13.823,13.823,0,0,0,2.359-2.549,14.109,14.109,0,0,0,1.651-3.042,13.592,13.592,0,0,0,.859-3.384c.029-.23.051-.452.064-.666s.022-.434.022-.664V221.107A2.551,2.551,0,0,0,209.374,219.222Zm-4.7,21.4a8.587,8.587,0,0,1-4.691,6.106q-.429.193-.846.365.3-.132.591-.279a7.8,7.8,0,0,1-2.78.686,9.271,9.271,0,0,1-2.826-.259,8.137,8.137,0,0,1-2.631-1.264,8.614,8.614,0,0,1-2.074-2.12,7.364,7.364,0,0,1-1.219-2.549,8.866,8.866,0,0,1-.279-2.806,8.042,8.042,0,0,1,.77-3.063,9.165,9.165,0,0,1,1.8-2.549,7.668,7.668,0,0,1,1.175-.9c.414-.257.848-.5,1.306-.728a7.946,7.946,0,0,1,3.357-.728,8.241,8.241,0,0,1,3.4.728,8.443,8.443,0,0,1,2.806,1.972,8.326,8.326,0,0,1,1.821,2.956A8.209,8.209,0,0,1,204.67,240.62Z" transform="translate(-182.556 -218.451)" fill="#fff"/>
      </g>
      <path id="Path_45" data-name="Path 45" d="M207.507,262.356c-.027.013-.051.024-.078.035-.23.1-.471.193-.728.279C206.967,262.573,207.235,262.469,207.507,262.356Z" transform="translate(-190.948 -233.71)" fill="#fff"/>
      <path id="Path_46" data-name="Path 46" d="M237.552,231.648a2.705,2.705,0,0,1,2.7,2.7v20.263a2.705,2.705,0,0,1-2.7,2.7,2.528,2.528,0,0,1-1.885-.793,2.635,2.635,0,0,1-.771-1.906V234.347a2.636,2.636,0,0,1,.771-1.906A2.528,2.528,0,0,1,237.552,231.648Z" transform="translate(-200.746 -223.038)" fill="#fff"/>
      <g id="Group_10" data-name="Group 10" transform="translate(46.358 6.833)">
        <path id="Path_47" data-name="Path 47" d="M280.832,239.633a14.833,14.833,0,0,0-1.179-3.213,13.961,13.961,0,0,0-1.91-2.826,13.328,13.328,0,0,0-2.6-2.293A13.883,13.883,0,0,0,261.5,230.23a14.147,14.147,0,0,0-2.939,1.905,13.741,13.741,0,0,0-2.361,2.549,14.71,14.71,0,0,0-1.673,3.065,12.145,12.145,0,0,0-.836,3.406c-.029.228-.051.449-.065.664s-.022.437-.022.664V260.6a2.551,2.551,0,0,0,.777,1.885,2.73,2.73,0,0,0,3.8,0,2.553,2.553,0,0,0,.776-1.885v-7.026a14.72,14.72,0,0,0,4.82,2.379,13.379,13.379,0,0,0,5.378.405,13.884,13.884,0,0,0,5.1-1.69,13.3,13.3,0,0,0,4.069-3.534,14.065,14.065,0,0,0,2.056-3.835,14.577,14.577,0,0,0,.814-4.264A13.065,13.065,0,0,0,280.832,239.633Zm-4.99,3.62a7.951,7.951,0,0,1-.77,3.021,9.125,9.125,0,0,1-1.8,2.549,7.8,7.8,0,0,1-1.175.9q-.621.386-1.306.728a8.181,8.181,0,0,1-3.379.728,8.568,8.568,0,0,1-8.006-5.612,8.305,8.305,0,0,1-.321-4.457,8.706,8.706,0,0,1,1.95-4.028,7.411,7.411,0,0,1,2.742-2.055,8.536,8.536,0,0,1,.792-.386l.073-.031c-.2.091-.407.188-.611.288a8.061,8.061,0,0,1,5.605-.385,8.407,8.407,0,0,1,4.7,3.341A8.038,8.038,0,0,1,275.842,243.253Z" transform="translate(-253.607 -228.924)" fill="#fff"/>
      </g>
      <path id="Path_48" data-name="Path 48" d="M270.869,237.422l-.344.143.075-.033C270.689,237.492,270.779,237.459,270.869,237.422Z" transform="translate(-213.129 -225.044)" fill="url(#linear-gradient)"/>
      <path id="Path_49" data-name="Path 49" d="M271.469,237.163c-.138.052-.277.112-.416.169C271.19,237.276,271.328,237.219,271.469,237.163Z" transform="translate(-213.313 -224.954)" fill="url(#linear-gradient-2)"/>
      <path id="Path_50" data-name="Path 50" d="M304.393,231.648a2.707,2.707,0,0,1,2.7,2.7v20.263a2.707,2.707,0,0,1-2.7,2.7,2.529,2.529,0,0,1-1.886-.793,2.634,2.634,0,0,1-.771-1.906V234.347a2.635,2.635,0,0,1,.771-1.906A2.529,2.529,0,0,1,304.393,231.648Z" transform="translate(-223.976 -223.038)" fill="#fff"/>
      <path id="Path_51" data-name="Path 51" d="M348.915,231.519v.684a13.915,13.915,0,0,1-1.693,5.882,13.732,13.732,0,0,1-3.92,4.47,13.85,13.85,0,0,1,3.942,4.527,13.679,13.679,0,0,1,1.671,5.943v.729a2.635,2.635,0,0,1-2.656,2.66,2.635,2.635,0,0,1-1.906-.771,2.528,2.528,0,0,1-.793-1.885v-.429a8.34,8.34,0,0,0-.75-3.106,8.616,8.616,0,0,0-4.306-4.284,7.957,7.957,0,0,0-3.127-.707.476.476,0,0,1-.214.043.594.594,0,0,1-.257-.043,7.955,7.955,0,0,0-3.127.707,8.64,8.64,0,0,0-2.549,1.756,9.074,9.074,0,0,0-1.778,2.528,7.561,7.561,0,0,0-.728,3.106v.429a2.528,2.528,0,0,1-.793,1.885,2.636,2.636,0,0,1-1.906.771,2.635,2.635,0,0,1-2.656-2.66v-.729a13.659,13.659,0,0,1,1.671-5.943,13.841,13.841,0,0,1,3.942-4.527,13.734,13.734,0,0,1-3.92-4.47,13.913,13.913,0,0,1-1.692-5.882v-.727a2.631,2.631,0,0,1,2.656-2.652,2.7,2.7,0,0,1,2.7,2.688v.3a7.661,7.661,0,0,0,.728,3.115,8.942,8.942,0,0,0,1.778,2.539,8.286,8.286,0,0,0,2.549,1.728,8.2,8.2,0,0,0,3.127.683h.471a8.2,8.2,0,0,0,3.127-.683,8.292,8.292,0,0,0,2.549-1.728,8.609,8.609,0,0,0,1.756-2.539,8.458,8.458,0,0,0,.75-3.115v-.3a2.678,2.678,0,1,1,5.355-.036Z" transform="translate(-230.799 -222.056)" fill="#fff"/>
      <g id="Group_11" data-name="Group 11" transform="translate(121.893 6.811)">
        <path id="Path_52" data-name="Path 52" d="M395.867,237.372A14.319,14.319,0,0,0,392.933,233a13.11,13.11,0,0,0-5.528-3.425,14,14,0,0,0-6.513-.515,14.508,14.508,0,0,0-4.839,1.821,13.088,13.088,0,0,0-3.858,3.492c-.141.17-.276.35-.407.536s-.25.363-.363.536a13.415,13.415,0,0,0-2.036,6.619,13.806,13.806,0,0,0,1.436,6.791,13.125,13.125,0,0,0,2.013,2.954,13.534,13.534,0,0,0,2.678,2.292,14.774,14.774,0,0,0,3.191,1.565,13.49,13.49,0,0,0,3.514.728,2.262,2.262,0,0,0,.449.042h.494a2.5,2.5,0,0,0,1.863-.77,2.61,2.61,0,0,0,.748-1.886,2.56,2.56,0,0,0-2.611-2.613h-.173a9.116,9.116,0,0,1-3.127-.686,8.159,8.159,0,0,1-2.4-1.542,8.688,8.688,0,0,1-1.751-2.218c-.044-.086-.091-.177-.134-.268a6.5,6.5,0,0,1-.472-1.071h19.064a2.787,2.787,0,0,0,1.907-.814,2.683,2.683,0,0,0,.834-1.883v-.173A12.888,12.888,0,0,0,395.867,237.372Zm-20.757,2.655a9.027,9.027,0,0,1,1.37-2.55,8.737,8.737,0,0,1,2.141-1.991,8.586,8.586,0,0,1,3.258-1.219,7.907,7.907,0,0,1,3.425.193,8.718,8.718,0,0,1,3.107,1.563,8.146,8.146,0,0,1,2.206,2.635,9.2,9.2,0,0,1,.6,1.37Z" transform="translate(-369.377 -228.89)" fill="#fff"/>
      </g>
      <path id="Path_53" data-name="Path 53" d="M430.9,253.758a2.479,2.479,0,0,1-.75,1.82,2.811,2.811,0,0,1-1.821.836h-.386a13.44,13.44,0,0,1-5.226-1.2,13.929,13.929,0,0,1-4.255-2.977,14.158,14.158,0,0,1-2.871-4.327,13.261,13.261,0,0,1-1.058-5.291V231.48a2.556,2.556,0,0,1,.777-1.885,2.6,2.6,0,0,1,1.9-.771,2.666,2.666,0,0,1,1.921.771,2.52,2.52,0,0,1,.8,1.885l-.043,11.139a8.066,8.066,0,0,0,.643,3.213,8.66,8.66,0,0,0,4.306,4.477,7.654,7.654,0,0,0,3.149.75h.214a2.706,2.706,0,0,1,2.7,2.7Z" transform="translate(-263.18 -222.056)" fill="#fff"/>
      <path id="Path_54" data-name="Path 54" d="M463.292,248.21a7.981,7.981,0,0,1-.637,3.162,8.417,8.417,0,0,1-1.721,2.607,8.217,8.217,0,0,1-2.576,1.773,7.7,7.7,0,0,1-3.162.662H443.371a2.608,2.608,0,0,1-1.906-.786,2.654,2.654,0,0,1,0-3.782,2.611,2.611,0,0,1,1.906-.787h11.738a2.713,2.713,0,0,0,1.993-.841,2.753,2.753,0,0,0,.835-2.008,2.8,2.8,0,0,0-.835-2.05,2.714,2.714,0,0,0-1.993-.842H449.54a8.075,8.075,0,0,1-3.213-.643,8.181,8.181,0,0,1-4.37-4.37,8.353,8.353,0,0,1,0-6.426,8.25,8.25,0,0,1,1.756-2.613,8.632,8.632,0,0,1,2.592-1.778,7.7,7.7,0,0,1,3.192-.664h5.44a2.611,2.611,0,0,1,1.906.787,2.649,2.649,0,0,1,0,3.783,2.623,2.623,0,0,1-1.914.786h-5.462a2.837,2.837,0,0,0-1.978.87,2.94,2.94,0,0,0,0,4.065,2.677,2.677,0,0,0,2.013.848h5.569a7.863,7.863,0,0,1,3.213.663,8.561,8.561,0,0,1,2.613,1.773,8.206,8.206,0,0,1,1.756,2.607A8.024,8.024,0,0,1,463.292,248.21Z" transform="translate(-272.262 -222.056)" fill="#fff"/>
      <rect id="Rectangle_3" data-name="Rectangle 3" width="5.221" height="4.719" transform="translate(34.216 0.36)" fill="#9add3a"/>
      <rect id="Rectangle_4" data-name="Rectangle 4" width="5.221" height="4.719" transform="translate(77.827 0.36)" fill="#1eafe8"/>
    </g>
    <g id="Group_19" data-name="Group 19" transform="translate(24.66 191.821)">
      <path id="Path_55" data-name="Path 55" d="M94.975,284.062a7.764,7.764,0,0,0,7.764-7.764V238.785H102.7c-2.2,2.858-5.033,6.573-7.73,10.09Z" transform="translate(-49.097 -208.143)" fill="url(#linear-gradient-3)"/>
      <path id="Path_56" data-name="Path 56" d="M96.43,250.662s4.959-6.479,5.866-7.662v34.763a6.826,6.826,0,0,1-5.866,6.748Z" transform="translate(-49.603 -209.608)" fill="url(#linear-gradient-4)"/>
      <path id="Path_57" data-name="Path 57" d="M81.994,199.585V237.1h.035c2.2-2.858,5.033-6.573,7.729-10.09V191.821A7.764,7.764,0,0,0,81.994,199.585Z" transform="translate(-44.586 -191.821)" fill="url(#linear-gradient-5)"/>
      <path id="Path_58" data-name="Path 58" d="M83.449,200.126a6.825,6.825,0,0,1,5.865-6.749v33.85s-4.947,6.464-5.865,7.662Z" transform="translate(-45.092 -192.362)" fill="url(#linear-gradient-6)"/>
      <path id="Path_59" data-name="Path 59" d="M112.579,233.212a19.811,19.811,0,0,0-4.689-6.282,22.163,22.163,0,0,0-6.955-4.235,24.123,24.123,0,0,0-17.034,0,22.173,22.173,0,0,0-6.955,4.235c-.863.779-4.54,5.073-8.526,9.768-2.7,3.177-5.528,6.532-7.73,9.114-2.012,2.359-3.5,4.074-3.851,4.395a14.776,14.776,0,0,1-4.63,2.819,16.067,16.067,0,0,1-11.339,0,14.773,14.773,0,0,1-4.629-2.819,13.2,13.2,0,0,1-3.122-4.182,12.028,12.028,0,0,1,0-10.241,13.2,13.2,0,0,1,3.122-4.182,14.776,14.776,0,0,1,4.629-2.819,16.068,16.068,0,0,1,11.339,0,14.779,14.779,0,0,1,4.63,2.819,13.2,13.2,0,0,1,3.121,4.182l.7-.266V225.81a22.361,22.361,0,0,0-5.6-3.115,24.123,24.123,0,0,0-17.034,0,22.163,22.163,0,0,0-6.955,4.235,19.812,19.812,0,0,0-4.689,6.282,18.069,18.069,0,0,0,0,15.385,19.812,19.812,0,0,0,4.689,6.282,22.163,22.163,0,0,0,6.955,4.235,24.124,24.124,0,0,0,17.034,0,22.173,22.173,0,0,0,6.955-4.235c1.98-1.788,18.789-22.086,20.107-23.277a14.779,14.779,0,0,1,4.63-2.819,16.068,16.068,0,0,1,11.339,0,14.776,14.776,0,0,1,4.629,2.819,13.2,13.2,0,0,1,3.122,4.182,12.027,12.027,0,0,1,0,10.241,13.2,13.2,0,0,1-3.122,4.182,14.773,14.773,0,0,1-4.629,2.819,16.067,16.067,0,0,1-11.339,0,14.776,14.776,0,0,1-4.63-2.819,13.449,13.449,0,0,1-2.406-2.879v9.662a22.561,22.561,0,0,0,4.188,2.124,24.124,24.124,0,0,0,17.034,0,22.163,22.163,0,0,0,6.955-4.235,19.812,19.812,0,0,0,4.689-6.282,18.069,18.069,0,0,0,0-15.385Z" transform="translate(-24.66 -202.011)" fill="url(#radial-gradient)"/>
      <path id="Path_60" data-name="Path 60" d="M92.924,261.214A20.744,20.744,0,0,1,81.168,257.6v-7.19q.378.439.785.847a15.524,15.524,0,1,0,0-21.941c-.606.605-3.621,4.539-8.49,10.9-4.71,6.157-10.571,13.82-11.616,14.866a20.958,20.958,0,1,1-1.634-31.066v8.053a15.524,15.524,0,0,0-27.462,2.174,15.515,15.515,0,0,0,25.266,17.01c.261-.26.917-1.042,3.933-4.958,1.353-1.758,2.945-3.839,4.6-6L69.68,236.2c2.239-2.92,7.48-9.757,8.444-10.721a20.936,20.936,0,1,1,14.8,35.731Z" transform="translate(-25.166 -201.39)" fill="url(#radial-gradient-2)"/>
      <g id="Group_13" data-name="Group 13" transform="translate(4.139 19.059)" opacity="0.41">
        <path id="Path_61" data-name="Path 61" d="M97.963,227.888a15.44,15.44,0,0,1,5.289-1.23c-.343-.026-.687-.045-1.033-.049a15.566,15.566,0,0,0-11.45,4.809c-.6.625-2.95,3.831-8.145,10.968-4.18,5.741-9.871,13.558-10.805,14.528a18.256,18.256,0,0,1-5.98,4.139,18.664,18.664,0,0,1-6.423,1.486c.344.018.69.029,1.037.029a18.76,18.76,0,0,0,7.451-1.514,18.271,18.271,0,0,0,5.978-4.135c.934-.97,6.629-8.782,10.811-14.52,5.2-7.131,7.55-10.336,8.15-10.96A15.608,15.608,0,0,1,97.963,227.888Z" transform="translate(-40.878 -222.97)" fill="url(#radial-gradient-3)"/>
        <path id="Path_62" data-name="Path 62" d="M44.017,257.992a17.558,17.558,0,0,1-5.4-3.537,17.806,17.806,0,0,1-3.815-5.281,17.277,17.277,0,0,1-1.647-6.515,16.369,16.369,0,0,1,.974-6.555,15.654,15.654,0,0,1,3.322-5.366,15.408,15.408,0,0,1,5.159-3.6,15.746,15.746,0,0,1,5.4-1.247c-.353-.026-.707-.045-1.064-.049a15.856,15.856,0,0,0-6.467,1.273,15.414,15.414,0,0,0-5.16,3.6A15.632,15.632,0,0,0,32,236.086a16.364,16.364,0,0,0-.967,6.56,17.286,17.286,0,0,0,1.659,6.519,17.856,17.856,0,0,0,3.827,5.285,17.618,17.618,0,0,0,5.416,3.539,16.752,16.752,0,0,0,6.446,1.3c.348,0,.694-.014,1.037-.035A16.75,16.75,0,0,1,44.017,257.992Z" transform="translate(-31.004 -222.702)" fill="url(#radial-gradient-4)"/>
        <path id="Path_63" data-name="Path 63" d="M63.567,222.691a20.787,20.787,0,0,1,4.391,2.614l.082,2.319A17.861,17.861,0,0,1,70,229.291c.07.069.14.14.208.21l-.141-4.174a20.688,20.688,0,0,0-4.382-2.611,19.844,19.844,0,0,0-7.765-1.683c-.356,0-.71,0-1.062.018A19.908,19.908,0,0,1,63.567,222.691Z" transform="translate(-39.988 -221.031)" fill="url(#radial-gradient-5)"/>
        <path id="Path_64" data-name="Path 64" d="M145.277,234.153a20.009,20.009,0,0,0-4.089-6.3,19.5,19.5,0,0,0-6.106-4.325,18.744,18.744,0,0,0-7.507-1.657c-.346,0-.691,0-1.034.016a18.8,18.8,0,0,1,6.483,1.617,19.556,19.556,0,0,1,6.119,4.327,20.1,20.1,0,0,1,5.6,13.912,19.593,19.593,0,0,1-1.465,7.516,18.976,18.976,0,0,1-4,6.085,18.486,18.486,0,0,1-5.937,4.083,18.29,18.29,0,0,1-6.294,1.466c.335.018.671.028,1.009.028a18.422,18.422,0,0,0,13.231-5.573,19,19,0,0,0,4-6.081,19.585,19.585,0,0,0,1.473-7.51A20.014,20.014,0,0,0,145.277,234.153Z" transform="translate(-64.207 -221.322)" fill="url(#radial-gradient-6)"/>
        <path id="Path_65" data-name="Path 65" d="M117.146,273.921a16.322,16.322,0,0,1-3.974-2.415l.027,1.437a16.535,16.535,0,0,0,1.916.976,15.864,15.864,0,0,0,6.237,1.278c.339,0,.675-.014,1.011-.035A15.822,15.822,0,0,1,117.146,273.921Z" transform="translate(-59.56 -238.573)" fill="url(#radial-gradient-7)"/>
      </g>
      <g id="Group_18" data-name="Group 18" transform="translate(3.08 19.131)" opacity="0.41">
        <path id="Path_66" data-name="Path 66" d="M97.015,227.175a16.52,16.52,0,0,1,5.436-1.275c-.352-.022-.7-.037-1.059-.037a16.638,16.638,0,0,0-11.8,4.886c-.626.626-3.1,3.838-8.59,11.018-4.442,5.808-10.526,13.762-11.517,14.753a19.675,19.675,0,0,1-12.915,5.759c.352.019.7.029,1.059.029a19.7,19.7,0,0,0,13.974-5.789c.991-.991,7.075-8.945,11.517-14.753,5.492-7.18,7.965-10.392,8.591-11.018A16.615,16.615,0,0,1,97.015,227.175Z" transform="translate(-38.831 -222.783)" fill="url(#radial-gradient-8)"/>
        <path id="Path_67" data-name="Path 67" d="M41.687,257.916A16.678,16.678,0,0,1,47.122,225.9c-.351-.022-.7-.037-1.059-.037a16.683,16.683,0,1,0,0,33.365c.355,0,.708-.015,1.059-.037A16.52,16.52,0,0,1,41.687,257.916Z" transform="translate(-29.381 -222.783)" fill="url(#radial-gradient-9)"/>
        <path id="Path_68" data-name="Path 68" d="M63.2,222.694a19.692,19.692,0,0,1,4.308,2.511v2.279a16.785,16.785,0,0,1,1.914,1.624c.069.068.136.137.2.206v-4.109a19.622,19.622,0,0,0-12-4.063c-.355,0-.707.01-1.059.029A19.579,19.579,0,0,1,63.2,222.694Z" transform="translate(-38.831 -221.142)" fill="url(#radial-gradient-10)"/>
        <path id="Path_69" data-name="Path 69" d="M146.157,233.213a19.745,19.745,0,0,0-18.211-12.071c-.354,0-.707.01-1.058.029a19.761,19.761,0,0,1,0,39.467c.351.019.7.029,1.058.029a19.775,19.775,0,0,0,18.211-27.455Z" transform="translate(-63.269 -221.142)" fill="url(#radial-gradient-11)"/>
        <g id="Group_17" data-name="Group 17" transform="translate(54.091 32.658)">
          <g id="Group_16" data-name="Group 16">
            <g id="Group_15" data-name="Group 15">
              <g id="Group_14" data-name="Group 14">
                <path id="Path_70" data-name="Path 70" d="M116.378,273.671a16.575,16.575,0,0,1-4.094-2.476v1.475a16.483,16.483,0,0,0,8.47,2.313c.355,0,.707-.015,1.059-.037A16.513,16.513,0,0,1,116.378,273.671Z" transform="translate(-112.284 -271.195)" fill="url(#radial-gradient-12)"/>
              </g>
            </g>
          </g>
        </g>
      </g>
    </g>
  </g>
</svg>
